<svg width="40" height="25" viewBox="0 0 40 25" fill="none" xmlns="http://www.w3.org/2000/svg">
<path d="M1.66667 0H33.3333C34.1483 0 34.8433 0.589166 34.9775 1.3925L36.4117 10H38.3333C39.2533 10 40 10.7467 40 11.6667V20C40 20.92 39.2533 21.6667 38.3333 21.6667H34.7083C34.02 23.605 32.1725 25 30 25C27.8275 25 25.98 23.605 25.2917 21.6667H14.7083C14.0192 23.605 12.1717 25 10 25C7.82833 25 5.98083 23.605 5.29167 21.6667H1.66667C0.746666 21.6667 0 20.92 0 20V1.66667C0 0.746667 0.746666 0 1.66667 0ZM28.3333 3.33333V10H33.0325L31.9217 3.33333H28.3333ZM30 21.6667C30.9192 21.6667 31.6667 20.9192 31.6667 20C31.6667 19.0808 30.9192 18.3333 30 18.3333C29.0817 18.3333 28.3342 19.08 28.3333 19.9983C28.3333 19.9983 28.3333 19.9992 28.3333 20C28.3333 20.0008 28.3333 20.0017 28.3333 20.0017C28.3342 20.92 29.0817 21.6667 30 21.6667ZM10 21.6667C10.9192 21.6667 11.6667 20.9192 11.6667 20C11.6667 19.0808 10.9192 18.3333 10 18.3333C9.08083 18.3333 8.33333 19.0808 8.33333 20C8.33333 20.9192 9.08083 21.6667 10 21.6667ZM3.33334 18.3333H5.29167C5.98083 16.395 7.82833 15 10 15C12.1717 15 14.0192 16.395 14.7083 18.3333H25.2917C25.98 16.395 27.8275 15 30 15C32.1725 15 34.02 16.395 34.7083 18.3333H36.6667V13.3333H26.6667C25.7467 13.3333 25 12.5867 25 11.6667V3.33333H3.33334V18.3333Z" fill="#2F3037"/>
</svg>
